<?xml version="1.0" encoding="UTF-8" standalone="no"?>
<svg
   xmlns:dc="http://purl.org/dc/elements/1.1/"
   xmlns:cc="http://creativecommons.org/ns#"
   xmlns:rdf="http://www.w3.org/1999/02/22-rdf-syntax-ns#"
   xmlns:svg="http://www.w3.org/2000/svg"
   xmlns="http://www.w3.org/2000/svg"
   xmlns:sodipodi="http://sodipodi.sourceforge.net/DTD/sodipodi-0.dtd"
   xmlns:inkscape="http://www.inkscape.org/namespaces/inkscape"
   inkscape:export-ydpi="78.081398"
   inkscape:export-xdpi="78.081398"
   inkscape:export-filename="D:\GitHub\uasimg\graphics\hex_logo\uasimg_hex-logo1_240x278.png"
   width="78.03627mm"
   height="90.108528mm"
   viewBox="0 0 78.03627 90.108528"
   version="1.1"
   id="svg8"
   inkscape:version="1.0 (4035a4fb49, 2020-05-01)"
   sodipodi:docname="uasimg_hex-logo1c.svg">
  <defs
     id="defs2">
    <pattern
       id="EMFhbasepattern"
       patternUnits="userSpaceOnUse"
       width="6"
       height="6"
       x="0"
       y="0" />
  </defs>
  <sodipodi:namedview
     inkscape:guide-bbox="true"
     showguides="true"
     inkscape:snap-others="false"
     inkscape:snap-nodes="false"
     inkscape:object-nodes="false"
     id="base"
     pagecolor="#ffffff"
     bordercolor="#666666"
     borderopacity="1.0"
     inkscape:pageopacity="0.0"
     inkscape:pageshadow="2"
     inkscape:zoom="1"
     inkscape:cx="76.965023"
     inkscape:cy="156.39806"
     inkscape:document-units="mm"
     inkscape:current-layer="layer4"
     inkscape:document-rotation="0"
     showgrid="false"
     inkscape:window-width="1600"
     inkscape:window-height="837"
     inkscape:window-x="1922"
     inkscape:window-y="1049"
     inkscape:window-maximized="1"
     fit-margin-top="0"
     fit-margin-left="0"
     fit-margin-right="0"
     fit-margin-bottom="0">
    <sodipodi:guide
       id="guide134"
       orientation="0,-1"
       position="-23.76026,-11.106439" />
    <sodipodi:guide
       id="guide136"
       orientation="0,-1"
       position="-1.683798,94.785744" />
  </sodipodi:namedview>
  <metadata
     id="metadata5">
    <rdf:RDF>
      <cc:Work
         rdf:about="">
        <dc:format>image/svg+xml</dc:format>
        <dc:type
           rdf:resource="http://purl.org/dc/dcmitype/StillImage" />
        <dc:title />
      </cc:Work>
    </rdf:RDF>
  </metadata>
  <g
     inkscape:label="Hex Border"
     inkscape:groupmode="layer"
     id="layer1"
     style="display:inline"
     transform="translate(-0.07416375,-0.08564118)">
    <path
       inkscape:transform-center-y="-1.1809524e-06"
       inkscape:transform-center-x="-1.8380952e-06"
       d="M 1.1324987,23.223803 39.092299,1.3077011 77.052101,23.223802 l 1e-6,43.832203 L 39.092301,88.972107 1.1324997,67.056006 Z"
       inkscape:randomized="0"
       inkscape:rounded="0"
       inkscape:flatsided="true"
       sodipodi:arg2="-2.0943951"
       sodipodi:arg1="-2.6179939"
       sodipodi:r2="37.959801"
       sodipodi:r1="43.832203"
       sodipodi:cy="45.139904"
       sodipodi:cx="39.0923"
       sodipodi:sides="6"
       id="path12"
       style="display:inline;fill:#e1e8c7;fill-opacity:1;stroke:none;stroke-width:2.11667;stroke-miterlimit:4;stroke-dasharray:none;stroke-opacity:1;paint-order:stroke fill markers"
       sodipodi:type="star" />
  </g>
  <g
     id="layer2"
     inkscape:label="Logo Text"
     style="display:inline"
     inkscape:groupmode="layer"
     transform="translate(-0.07416375,-0.08564118)">
    <text
       id="text1196"
       y="71.742355"
       x="21.926111"
       style="font-style:normal;font-variant:normal;font-weight:800;font-stretch:normal;font-size:8.4774px;line-height:1.25;font-family:'Roboto Slab';-inkscape-font-specification:'Roboto Slab, Ultra-Bold';font-variant-ligatures:normal;font-variant-caps:normal;font-variant-numeric:normal;font-variant-east-asian:normal;letter-spacing:0.650422px;word-spacing:0px;fill:#000000;fill-opacity:1;stroke:#e1e8c7;stroke-width:0.22377;stroke-miterlimit:4;stroke-dasharray:none;stroke-opacity:1;paint-order:markers stroke fill"
       xml:space="preserve"><tspan
         sodipodi:role="line"
         style="font-style:normal;font-variant:normal;font-weight:normal;font-stretch:normal;font-size:8.4774px;font-family:'Roboto Slab';-inkscape-font-specification:'Roboto Slab, Normal';font-variant-ligatures:normal;font-variant-caps:normal;font-variant-numeric:normal;font-variant-east-asian:normal;stroke:#e1e8c7;stroke-width:0.22377;stroke-miterlimit:4;stroke-dasharray:none;stroke-opacity:1;paint-order:markers stroke fill"
         y="71.742355"
         x="21.926111"
         id="tspan1194">uasimg</tspan></text>
  </g>
  <g
     style="display:inline"
     inkscape:label="Flight Path"
     id="layer4"
     inkscape:groupmode="layer"
     transform="translate(-0.07416375,-0.08564118)">
    <g
       style="stroke:#599cf6;stroke-width:0.352778;stroke-miterlimit:4;stroke-dasharray:none;stroke-opacity:1"
       id="g169">
      <path
         id="path1218"
         d="m 36.549714,57.788275 4.832555,3.458792"
         style="fill:#00c0f8;stroke:#599cf6;stroke-width:0.352778;stroke-linecap:butt;stroke-linejoin:round;stroke-miterlimit:4;stroke-dasharray:none;stroke-opacity:1" />
      <path
         style="fill:none;stroke:#599cf6;stroke-width:0.352778;stroke-linecap:butt;stroke-linejoin:round;stroke-miterlimit:4;stroke-dasharray:none;stroke-opacity:1"
         clip-path="none"
         d="m 1.3690784,53.129666 c 6.9876397,-0.03405 17.9012226,-1.4536 20.0067256,-4.495971 L 36.220743,27.183328"
         id="path1204"
         sodipodi:nodetypes="csc" />
      <path
         style="fill:#00c0f8;stroke:#599cf6;stroke-width:0.352778;stroke-linecap:butt;stroke-linejoin:round;stroke-miterlimit:4;stroke-dasharray:none;stroke-opacity:1"
         d="m 36.25315,27.159964 4.831772,3.458231"
         id="path1206" />
      <path
         style="fill:#00c0f8;stroke:#599cf6;stroke-width:0.352778;stroke-linecap:butt;stroke-linejoin:round;stroke-miterlimit:4;stroke-dasharray:none;stroke-opacity:1"
         d="M 26.97464,50.930205 41.091974,30.623242"
         id="path1208" />
      <path
         style="fill:#00c0f8;stroke:#599cf6;stroke-width:0.352778;stroke-linecap:butt;stroke-linejoin:round;stroke-miterlimit:4;stroke-dasharray:none;stroke-opacity:1"
         d="m 26.972352,50.933498 4.832556,3.458792"
         id="path1210" />
      <path
         style="fill:#00c0f8;stroke:#599cf6;stroke-width:0.352778;stroke-linecap:butt;stroke-linejoin:round;stroke-miterlimit:4;stroke-dasharray:none;stroke-opacity:1"
         d="M 31.800928,54.384511 45.918262,34.077548"
         id="path1212" />
      <path
         style="fill:#00c0f8;stroke:#599cf6;stroke-width:0.352778;stroke-linecap:butt;stroke-linejoin:round;stroke-miterlimit:4;stroke-dasharray:none;stroke-opacity:1"
         d="m 45.918262,34.077548 4.831773,3.45823"
         id="path1214" />
      <path
         style="fill:#00c0f8;stroke:#599cf6;stroke-width:0.352778;stroke-linecap:butt;stroke-linejoin:round;stroke-miterlimit:4;stroke-dasharray:none;stroke-opacity:1"
         d="M 36.564538,57.793956 50.681872,37.486992"
         id="path1216" />
      <path
         style="fill:none;stroke:#599cf6;stroke-width:0.352778;stroke-linecap:butt;stroke-linejoin:round;stroke-miterlimit:4;stroke-dasharray:none;stroke-opacity:1"
         clip-path="none"
         d="M 41.402042,61.222966 55.483104,40.578567 C 58.021095,36.85759 68.79927,35.80636 77.09908,35.592124"
         id="path1220"
         mask="none"
         sodipodi:nodetypes="csc" />
    </g>
    <path
       id="path1805"
       d="m 41.747011,59.02626 c 0.248657,-0.363437 0.76407,-0.430201 1.149699,-0.149752 0.386937,0.281385 0.497557,0.803412 0.248891,1.166849 -0.249599,0.364811 -0.762771,0.431138 -1.149716,0.149754 -0.385629,-0.28045 -0.498481,-0.802042 -0.248874,-1.166851 z"
       style="fill:#0010cc;fill-opacity:1;fill-rule:evenodd;stroke:none;stroke-width:0.162585" />
    <path
       id="path1803"
       d="m 44.097766,55.627233 c 0.248657,-0.363436 0.764061,-0.430201 1.149699,-0.149751 0.386928,0.281384 0.497556,0.803413 0.24889,1.16685 -0.249598,0.364807 -0.762787,0.431136 -1.149715,0.149752 -0.385638,-0.28045 -0.498481,-0.802043 -0.248874,-1.166851 z"
       style="fill:#0010cc;fill-opacity:1;fill-rule:evenodd;stroke:none;stroke-width:0.162585" />
    <path
       id="path1801"
       d="m 46.448507,52.228207 c 0.248666,-0.363436 0.764079,-0.430201 1.149716,-0.149751 0.386928,0.281384 0.497548,0.803414 0.248891,1.16685 -0.249607,0.364809 -0.762779,0.431136 -1.149724,0.149752 -0.385629,-0.28045 -0.498481,-0.802042 -0.248883,-1.166851 z"
       style="fill:#0010cc;fill-opacity:1;fill-rule:evenodd;stroke:none;stroke-width:0.162585" />
    <path
       id="path1799"
       d="m 48.799267,48.82918 c 0.248658,-0.363437 0.764062,-0.4302 1.149699,-0.149751 0.386937,0.281385 0.497557,0.803412 0.248891,1.166848 -0.249598,0.36481 -0.762788,0.43114 -1.149716,0.149754 -0.385637,-0.280449 -0.498481,-0.802042 -0.248874,-1.166851 z"
       style="fill:#0010cc;fill-opacity:1;fill-rule:evenodd;stroke:none;stroke-width:0.162585" />
    <path
       style="fill:#0010cc;fill-opacity:1;fill-rule:evenodd;stroke:none;stroke-width:0.162585"
       d="m 51.150022,45.43015 c 0.248649,-0.363438 0.764062,-0.430202 1.149699,-0.149753 0.386928,0.281385 0.497556,0.803412 0.248891,1.16685 -0.249599,0.364809 -0.76278,0.431136 -1.149708,0.149752 -0.385645,-0.28045 -0.498497,-0.802041 -0.248882,-1.166849 z"
       id="path1797" />
    <path
       style="fill:#0010cc;fill-opacity:1;fill-rule:evenodd;stroke:none;stroke-width:0.162585"
       d="m 53.500775,42.031127 c 0.248649,-0.363437 0.764061,-0.430202 1.149699,-0.149752 0.386928,0.281384 0.497556,0.803412 0.24889,1.16685 -0.249598,0.364809 -0.762779,0.431136 -1.149707,0.149753 -0.385646,-0.28045 -0.498498,-0.802043 -0.248882,-1.166851 z"
       id="path1793" />
    <path
       style="fill:#0010cc;fill-opacity:1;fill-rule:evenodd;stroke:none;stroke-width:0.162585"
       d="m 48.730014,38.569987 c 0.248649,-0.363437 0.764061,-0.430202 1.149699,-0.149752 0.386928,0.281384 0.497556,0.803412 0.24889,1.16685 -0.249598,0.364809 -0.762779,0.431136 -1.149707,0.149753 -0.385646,-0.28045 -0.498498,-0.802043 -0.248882,-1.166851 z"
       id="path2138" />
    <path
       style="fill:#0010cc;fill-opacity:1;fill-rule:evenodd;stroke:none;stroke-width:0.162585"
       d="m 46.379261,41.96901 c 0.248649,-0.363438 0.764062,-0.430202 1.149699,-0.149753 0.386928,0.281385 0.497556,0.803412 0.248891,1.16685 -0.249599,0.364809 -0.76278,0.431136 -1.149708,0.149752 -0.385645,-0.28045 -0.498497,-0.802041 -0.248882,-1.166849 z"
       id="path2140" />
    <path
       id="path2142"
       d="m 44.028506,45.36804 c 0.248658,-0.363437 0.764062,-0.4302 1.149699,-0.149751 0.386937,0.281385 0.497557,0.803412 0.248891,1.166848 -0.249598,0.36481 -0.762788,0.43114 -1.149716,0.149754 -0.385637,-0.280449 -0.498481,-0.802042 -0.248874,-1.166851 z"
       style="fill:#0010cc;fill-opacity:1;fill-rule:evenodd;stroke:none;stroke-width:0.162585" />
    <path
       id="path2144"
       d="m 41.677746,48.767067 c 0.248666,-0.363436 0.764079,-0.430201 1.149716,-0.149751 0.386928,0.281384 0.497548,0.803414 0.248891,1.16685 -0.249607,0.364809 -0.762779,0.431136 -1.149724,0.149752 -0.385629,-0.28045 -0.498481,-0.802042 -0.248883,-1.166851 z"
       style="fill:#0010cc;fill-opacity:1;fill-rule:evenodd;stroke:none;stroke-width:0.162585" />
    <path
       id="path2146"
       d="m 39.327005,52.166093 c 0.248657,-0.363436 0.764061,-0.430201 1.149699,-0.149751 0.386928,0.281384 0.497556,0.803413 0.24889,1.16685 -0.249598,0.364807 -0.762787,0.431136 -1.149715,0.149752 -0.385638,-0.28045 -0.498481,-0.802043 -0.248874,-1.166851 z"
       style="fill:#0010cc;fill-opacity:1;fill-rule:evenodd;stroke:none;stroke-width:0.162585" />
    <path
       id="path2148"
       d="m 36.97625,55.56512 c 0.248657,-0.363437 0.76407,-0.430201 1.149699,-0.149752 0.386937,0.281385 0.497557,0.803412 0.248891,1.166849 -0.249599,0.364811 -0.762771,0.431138 -1.149716,0.149754 -0.385629,-0.28045 -0.498481,-0.802042 -0.248874,-1.166851 z"
       style="fill:#0010cc;fill-opacity:1;fill-rule:evenodd;stroke:none;stroke-width:0.162585" />
    <path
       id="path2150"
       d="m 43.772164,35.38948 c 0.248649,-0.363437 0.764061,-0.430202 1.149699,-0.149752 0.386928,0.281384 0.497556,0.803412 0.24889,1.16685 -0.249598,0.364809 -0.762779,0.431136 -1.149707,0.149753 -0.385646,-0.28045 -0.498498,-0.802043 -0.248882,-1.166851 z"
       style="fill:#0010cc;fill-opacity:1;fill-rule:evenodd;stroke:none;stroke-width:0.162585" />
    <path
       id="path2152"
       d="m 41.421411,38.788503 c 0.248649,-0.363438 0.764062,-0.430202 1.149699,-0.149753 0.386928,0.281385 0.497556,0.803412 0.248891,1.16685 -0.249599,0.364809 -0.76278,0.431136 -1.149708,0.149752 -0.385645,-0.28045 -0.498497,-0.802041 -0.248882,-1.166849 z"
       style="fill:#0010cc;fill-opacity:1;fill-rule:evenodd;stroke:none;stroke-width:0.162585" />
    <path
       style="fill:#0010cc;fill-opacity:1;fill-rule:evenodd;stroke:none;stroke-width:0.162585"
       d="m 39.070656,42.187533 c 0.248658,-0.363437 0.764062,-0.4302 1.149699,-0.149751 0.386937,0.281385 0.497557,0.803412 0.248891,1.166848 -0.249598,0.36481 -0.762788,0.43114 -1.149716,0.149754 -0.385637,-0.280449 -0.498481,-0.802042 -0.248874,-1.166851 z"
       id="path2154" />
    <path
       style="fill:#0010cc;fill-opacity:1;fill-rule:evenodd;stroke:none;stroke-width:0.162585"
       d="m 36.719896,45.58656 c 0.248666,-0.363436 0.764079,-0.430201 1.149716,-0.149751 0.386928,0.281384 0.497548,0.803414 0.248891,1.16685 -0.249607,0.364809 -0.762779,0.431136 -1.149724,0.149752 -0.385629,-0.28045 -0.498481,-0.802042 -0.248883,-1.166851 z"
       id="path2156" />
    <path
       style="fill:#0010cc;fill-opacity:1;fill-rule:evenodd;stroke:none;stroke-width:0.162585"
       d="m 34.369155,48.985586 c 0.248657,-0.363436 0.764061,-0.430201 1.149699,-0.149751 0.386928,0.281384 0.497556,0.803413 0.24889,1.16685 -0.249598,0.364807 -0.762787,0.431136 -1.149715,0.149752 -0.385638,-0.28045 -0.498481,-0.802043 -0.248874,-1.166851 z"
       id="path2158" />
    <path
       style="fill:#0010cc;fill-opacity:1;fill-rule:evenodd;stroke:none;stroke-width:0.162585"
       d="m 32.0184,52.384613 c 0.248657,-0.363437 0.76407,-0.430201 1.149699,-0.149752 0.386937,0.281385 0.497557,0.803412 0.248891,1.166849 -0.249599,0.364811 -0.762771,0.431138 -1.149716,0.149754 -0.385629,-0.28045 -0.498481,-0.802042 -0.248874,-1.166851 z"
       id="path2160" />
    <path
       style="fill:#0010cc;fill-opacity:1;fill-rule:evenodd;stroke:none;stroke-width:0.162585"
       d="m 38.72077,32.021884 c 0.248649,-0.363437 0.764061,-0.430202 1.149699,-0.149752 0.386928,0.281384 0.497556,0.803412 0.24889,1.16685 -0.249598,0.364809 -0.762779,0.431136 -1.149707,0.149753 -0.385646,-0.28045 -0.498498,-0.802043 -0.248882,-1.166851 z"
       id="path2162" />
    <path
       style="fill:#0010cc;fill-opacity:1;fill-rule:evenodd;stroke:none;stroke-width:0.162585"
       d="m 36.370017,35.420907 c 0.248649,-0.363438 0.764062,-0.430202 1.149699,-0.149753 0.386928,0.281385 0.497556,0.803412 0.248891,1.16685 -0.249599,0.364809 -0.76278,0.431136 -1.149708,0.149752 -0.385645,-0.28045 -0.498497,-0.802041 -0.248882,-1.166849 z"
       id="path2164" />
    <path
       id="path2166"
       d="m 34.019262,38.819937 c 0.248658,-0.363437 0.764062,-0.4302 1.149699,-0.149751 0.386937,0.281385 0.497557,0.803412 0.248891,1.166848 -0.249598,0.36481 -0.762788,0.43114 -1.149716,0.149754 -0.385637,-0.280449 -0.498481,-0.802042 -0.248874,-1.166851 z"
       style="fill:#0010cc;fill-opacity:1;fill-rule:evenodd;stroke:none;stroke-width:0.162585" />
    <path
       id="path2168"
       d="m 31.668502,42.218964 c 0.248666,-0.363436 0.764079,-0.430201 1.149716,-0.149751 0.386928,0.281384 0.497548,0.803414 0.248891,1.16685 -0.249607,0.364809 -0.762779,0.431136 -1.149724,0.149752 -0.385629,-0.28045 -0.498481,-0.802042 -0.248883,-1.166851 z"
       style="fill:#0010cc;fill-opacity:1;fill-rule:evenodd;stroke:none;stroke-width:0.162585" />
    <path
       id="path2170"
       d="m 29.317761,45.61799 c 0.248657,-0.363436 0.764061,-0.430201 1.149699,-0.149751 0.386928,0.281384 0.497556,0.803413 0.24889,1.16685 -0.249598,0.364807 -0.762787,0.431136 -1.149715,0.149752 -0.385638,-0.28045 -0.498481,-0.802043 -0.248874,-1.166851 z"
       style="fill:#0010cc;fill-opacity:1;fill-rule:evenodd;stroke:none;stroke-width:0.162585" />
    <path
       id="path2172"
       d="m 26.967006,49.017017 c 0.248657,-0.363437 0.76407,-0.430201 1.149699,-0.149752 0.386937,0.281385 0.497557,0.803412 0.248891,1.166849 -0.249599,0.364811 -0.762771,0.431138 -1.149716,0.149754 -0.385629,-0.28045 -0.498481,-0.802042 -0.248874,-1.166851 z"
       style="fill:#0010cc;fill-opacity:1;fill-rule:evenodd;stroke:none;stroke-width:0.162585" />
    <path
       id="path2174"
       d="m 33.856465,28.934921 c 0.248649,-0.363437 0.764061,-0.430202 1.149699,-0.149752 0.386928,0.281384 0.497556,0.803412 0.24889,1.16685 -0.249598,0.364809 -0.762779,0.431136 -1.149707,0.149753 -0.385646,-0.28045 -0.498498,-0.802043 -0.248882,-1.166851 z"
       style="fill:#0010cc;fill-opacity:1;fill-rule:evenodd;stroke:none;stroke-width:0.162585" />
    <path
       id="path2176"
       d="m 31.505712,32.333944 c 0.248649,-0.363438 0.764062,-0.430202 1.149699,-0.149753 0.386928,0.281385 0.497556,0.803412 0.248891,1.16685 -0.249599,0.364809 -0.76278,0.431136 -1.149708,0.149752 -0.385645,-0.28045 -0.498497,-0.802041 -0.248882,-1.166849 z"
       style="fill:#0010cc;fill-opacity:1;fill-rule:evenodd;stroke:none;stroke-width:0.162585" />
    <path
       style="fill:#0010cc;fill-opacity:1;fill-rule:evenodd;stroke:none;stroke-width:0.162585"
       d="m 29.154957,35.732974 c 0.248658,-0.363437 0.764062,-0.4302 1.149699,-0.149751 0.386937,0.281385 0.497557,0.803412 0.248891,1.166848 -0.249598,0.36481 -0.762788,0.43114 -1.149716,0.149754 -0.385637,-0.280449 -0.498481,-0.802042 -0.248874,-1.166851 z"
       id="path2178" />
    <path
       style="fill:#0010cc;fill-opacity:1;fill-rule:evenodd;stroke:none;stroke-width:0.162585"
       d="m 26.804197,39.132001 c 0.248666,-0.363436 0.764079,-0.430201 1.149716,-0.149751 0.386928,0.281384 0.497548,0.803414 0.248891,1.16685 -0.249607,0.364809 -0.762779,0.431136 -1.149724,0.149752 -0.385629,-0.28045 -0.498481,-0.802042 -0.248883,-1.166851 z"
       id="path2180" />
    <path
       style="fill:#0010cc;fill-opacity:1;fill-rule:evenodd;stroke:none;stroke-width:0.162585"
       d="m 24.453456,42.531027 c 0.248657,-0.363436 0.764061,-0.430201 1.149699,-0.149751 0.386928,0.281384 0.497556,0.803413 0.24889,1.16685 -0.249598,0.364807 -0.762787,0.431136 -1.149715,0.149752 -0.385638,-0.28045 -0.498481,-0.802043 -0.248874,-1.166851 z"
       id="path2182" />
    <path
       style="fill:#0010cc;fill-opacity:1;fill-rule:evenodd;stroke:none;stroke-width:0.162585"
       d="m 22.102701,45.930054 c 0.248657,-0.363437 0.76407,-0.430201 1.149699,-0.149752 0.386937,0.281385 0.497557,0.803412 0.248891,1.166849 -0.249599,0.364811 -0.762771,0.431138 -1.149716,0.149754 -0.385629,-0.28045 -0.498481,-0.802042 -0.248874,-1.166851 z"
       id="path2184" />
    <g
       style="fill:#000010"
       transform="matrix(0.4094846,0,0,0.4094846,25.769703,13.770848)"
       id="g2086">
      <path
         style="fill:#000010"
         class="st0"
         d="m 33.1,14 h -4.3 c -0.9,0 -1.6,0.7 -1.6,1.6 v 4.3 c 0,0.9 0.7,1.6 1.6,1.6 h 4.3 c 0.9,0 1.6,-0.7 1.6,-1.6 V 15.6 C 34.7,14.8 34,14.1 33.1,14 Z M 31,20 c -1.2,0 -2.2,-1 -2.2,-2.2 0,-1.2 1,-2.2 2.2,-2.2 1.2,0 2.2,1 2.2,2.2 v 0 0 c 0,1.2 -1,2.2 -2.2,2.2 z"
         id="path2051" />
      <path
         style="fill:#000010"
         class="st0"
         d="m 31,16.3 v 0 c 0.3,0.3 0.4,0.9 0.1,1.3 -0.3,0.4 -0.9,0.5 -1.3,0.1 -0.1,-0.1 -0.2,-0.2 -0.2,-0.3 0,0.1 -0.1,0.3 -0.1,0.4 0,0.9 0.7,1.6 1.5,1.6 0.9,0 1.6,-0.7 1.6,-1.5 0,-0.9 -0.7,-1.6 -1.6,-1.6 0,0 0,0 0,0 z"
         id="path2053" />
      <path
         style="fill:#000010"
         class="st0"
         d="M 52.5,8 C 52.4,7.1 51.7,6.3 50.8,6.1 V 3.2 c 0,-0.3 -0.3,-0.6 -0.6,-0.6 v 0 H 49 c -0.3,0 -0.6,0.3 -0.6,0.6 V 3.2 6 H 41.2 C 40.1,5.8 39,5.5 38,4.9 35.9,3.7 33.5,3 31,2.9 28.5,3 26.1,3.7 24,4.9 23,5.5 21.9,5.9 20.8,6 H 13.6 V 3.2 c 0,-0.3 -0.3,-0.6 -0.6,-0.6 0,0 0,0 0,0 h -1.1 c -0.3,0 -0.6,0.3 -0.6,0.6 V 6 c -0.9,0.2 -1.6,1 -1.7,1.9 -0.1,1.4 0.4,2.7 1.2,3.8 0.4,0.5 1,0.8 1.7,0.8 0.6,0 1.2,-0.3 1.6,-0.8 0.7,-0.9 1.1,-2 1.2,-3.1 h 5.8 c -0.4,0.5 -0.7,1.1 -0.8,1.7 -0.1,0.4 -0.3,1.8 -0.6,4 -0.3,2.2 -0.8,5 -1,5.8 -0.2,0.7 -0.1,1.4 0.4,1.9 0.2,0.2 0.5,0.3 0.8,0.3 0.1,0 0.2,0 0.3,0 0.6,-0.2 1,-0.8 1.1,-1.4 l 0.9,-3.6 1.5,-6.2 c 0,-0.4 0.4,-0.7 0.8,-0.6 0,0 0.1,0 0.1,0 h 2.1 L 27,11 c 0.5,0.8 1.3,1.4 2.3,1.6 0.6,0 1.2,0 1.8,0 0.6,0 1.2,0 1.8,0 1,-0.2 1.8,-0.7 2.3,-1.5 l 0.3,-0.4 h 2.2 c 0.4,-0.1 0.8,0.1 0.9,0.5 0,0 0,0.1 0,0.1 0.1,0.6 0.9,3.9 1.6,6.5 l 0.8,3.3 c 0.1,0.7 0.6,1.2 1.2,1.4 0.4,0.1 0.8,0 1.1,-0.3 0.5,-0.5 0.6,-1.3 0.4,-1.9 -0.2,-0.8 -0.6,-3.5 -1,-5.8 -0.4,-2.3 -0.5,-3.6 -0.6,-4 C 42,9.9 41.7,9.3 41.3,8.8 h 5.6 c 0.1,1.1 0.5,2.2 1.2,3.1 0.7,0.9 2.1,1.1 3,0.3 0.1,-0.1 0.2,-0.2 0.3,-0.3 0.7,-1.2 1.1,-2.5 1.1,-3.9 z"
         id="path2055" />
      <path
         style="fill:#000010"
         class="st0"
         d="m 11.4,1.5 c 0,0 -0.1,-0.1 -0.1,-0.1 C 9.5,1 7.6,0.7 5.7,0.8 3.8,0.7 2,1 0.1,1.4 c 0,0 -0.1,0 -0.1,0.1 0,0.1 0,0.1 0.1,0.1 0,0 0,0 0.1,0 C 2,2 3.8,2.3 5.7,2.2 7.6,2.2 9.5,2 11.3,1.5 c 0.1,0.1 0.1,0 0.1,0 z"
         id="path2057" />
      <path
         style="fill:#000010"
         class="st0"
         d="m 13.6,1.6 c 1.8,0.4 3.7,0.7 5.6,0.7 1.9,0 3.8,-0.2 5.6,-0.7 0,0 0.1,0 0.1,-0.1 0,-0.1 0,-0.1 -0.1,-0.1 -3.7,-0.9 -7.5,-0.9 -11.2,0 0,0 -0.1,0 0,0.2 -0.1,-0.1 0,0 0,0 z"
         id="path2059" />
      <path
         style="fill:#000010"
         class="st0"
         d="m 12.5,0 c -0.4,0 -0.8,0.8 -0.8,1.9 h 1.6 C 13.3,0.8 12.9,0 12.5,0 Z"
         id="path2061" />
      <path
         style="fill:#000010"
         class="st0"
         d="m 37.2,1.6 c 1.8,0.4 3.7,0.6 5.6,0.6 1.9,0 3.8,-0.2 5.6,-0.7 0,0 0.1,0 0.1,-0.1 0,-0.1 0,-0.1 -0.1,-0.1 -3.7,-0.9 -7.5,-0.9 -11.2,0 -0.1,0.1 -0.1,0.1 0,0.3 -0.1,-0.1 -0.1,0 0,0 z"
         id="path2063" />
      <path
         style="fill:#000010"
         class="st0"
         d="m 61.9,1.4 c -3.7,-0.9 -7.5,-0.9 -11.2,0 0,0 -0.1,0 -0.1,0.1 0,0.1 0,0.1 0.1,0.1 1.8,0.4 3.7,0.7 5.6,0.7 1.9,0 3.8,-0.2 5.6,-0.7 0.1,0 0.1,-0.1 0,-0.2 0.1,0.1 0.1,0 0,0 z"
         id="path2065" />
      <path
         style="fill:#000010"
         class="st0"
         d="m 49.5,0 c -0.4,0 -0.8,0.8 -0.8,1.9 h 1.6 C 50.3,0.8 50,0 49.5,0 Z"
         id="path2067" />
    </g>
  </g>
  <g
     style="display:inline"
     inkscape:label="HexOutline"
     id="layer3"
     inkscape:groupmode="layer"
     transform="translate(-0.07416375,-0.08564118)">
    <path
       sodipodi:type="star"
       style="display:inline;fill:none;fill-opacity:1;stroke:#104710;stroke-width:2.11667;stroke-miterlimit:4;stroke-dasharray:none;stroke-opacity:1;paint-order:stroke fill markers"
       id="path2186"
       sodipodi:sides="6"
       sodipodi:cx="39.0923"
       sodipodi:cy="45.139904"
       sodipodi:r1="43.832203"
       sodipodi:r2="37.959801"
       sodipodi:arg1="-2.6179939"
       sodipodi:arg2="-2.0943951"
       inkscape:flatsided="true"
       inkscape:rounded="0"
       inkscape:randomized="0"
       d="M 1.1324987,23.223803 39.092299,1.3077011 77.052101,23.223802 l 1e-6,43.832203 L 39.092301,88.972107 1.1324997,67.056006 Z"
       inkscape:transform-center-x="-1.8380952e-06"
       inkscape:transform-center-y="-1.1809524e-06" />
  </g>
  <style
     type="text/css"
     id="style2047">
	.st0{fill:#767F8D;}
</style>
</svg>
